<?xml version="1.0" standalone="no"?>
<!DOCTYPE svg PUBLIC "-//W3C//DTD SVG 1.1//EN"
"http://www.w3.org/Graphics/SVG/1.1/DTD/svg11.dtd">
<svg width="371.8mm" height="132mm" viewBox="-218.874 -126 371.8 132" xmlns="http://www.w3.org/2000/svg" version = "1.1">
<title>ProjectorStand_LaserCutType.123dx</title>
<desc> made with 123D Design </desc>
<path d="M 51.3528 -94.9999 L 51.3485 -95 L 49.2273 -94.9579 L 49.2229 -94.9578 L 47.1068 -94.8317 L 47.1025 -94.8314 L 44.9966 -94.6215 L 44.9923 -94.621 L 42.9017 -94.3279 L 42.8974 -94.3273 L 40.8271 -93.9517 L 40.8229 -93.9508 L 38.7779 -93.4936 L 38.7737 -93.4926 L 36.759 -92.9548 L 36.7549 -92.9536 L 34.7752 -92.3366 L 34.7712 -92.3353 L 32.8314 -91.6405 L 32.8274 -91.639 L 30.9322 -90.8682 L 30.9283 -90.8665 L 29.0821 -90.0215 L 29.0784 -90.0197 L 27.2858 -89.1024 L 27.2821 -89.1005 L 25.5474 -88.1133 L 25.5439 -88.1112 L 23.8711 -87.0564 L 23.8678 -87.0542 L 22.2611 -85.9343 L 22.2579 -85.9319 L 20.7211 -84.7498 L 20.7181 -84.7473 L 19.255 -83.5056 L 19.2521 -83.503 L 17.8661 -82.2048 L 17.8634 -82.202 L 16.558 -80.8504 L 16.5554 -80.8476 L 15.3336 -79.4459 L 15.3313 -79.4429 L 14.1961 -77.9945 L 14.1939 -77.9914 L 13.148 -76.4997 L 13.146 -76.4966 L 12.192 -74.9652 L 12.1902 -74.962 L 11.3304 -73.3946 L 11.3287 -73.3913 L 10.5651 -71.7917 L 10.5637 -71.7884 L 9.89814 -70.1605 L 9.89694 -70.1571 L 9.33102 -68.5047 L 9.33004 -68.5013 L 8.86515 -66.8285 L 8.86438 -66.825 L 8.50163 -65.1358 L 8.50108 -65.1323 L 8.24135 -63.4308 L 8.24102 -63.4273 L 8.08492 -61.7175 L 8.08481 -61.7139 L 8.03275 -60 L 8.08481 -58.2861 L 8.08492 -58.2825 L 8.24102 -56.5727 L 8.24135 -56.5692 L 8.50108 -54.8677 L 8.50163 -54.8642 L 8.86438 -53.1749 L 8.86515 -53.1715 L 9.33004 -51.4987 L 9.33102 -51.4952 L 9.89694 -49.8429 L 9.89814 -49.8395 L 10.5637 -48.2116 L 10.5651 -48.2082 L 11.3287 -46.6087 L 11.3304 -46.6054 L 12.1902 -45.038 L 12.192 -45.0348 L 13.146 -43.5034 L 13.148 -43.5003 L 14.1939 -42.0086 L 14.1961 -42.0055 L 15.3313 -40.5571 L 15.3336 -40.5541 L 16.5554 -39.1524 L 16.558 -39.1496 L 17.8634 -37.798 L 17.8661 -37.7952 L 19.2521 -36.497 L 19.255 -36.4944 L 20.7181 -35.2527 L 20.7211 -35.2502 L 22.2579 -34.068 L 22.2611 -34.0657 L 23.8678 -32.9458 L 23.8711 -32.9436 L 25.5439 -31.8888 L 25.5474 -31.8867 L 27.2821 -30.8995 L 27.2858 -30.8976 L 29.0784 -29.9803 L 29.0821 -29.9785 L 30.9283 -29.1335 L 30.9322 -29.1318 L 32.8274 -28.361 L 32.8314 -28.3595 L 34.7712 -27.6647 L 34.7752 -27.6634 L 36.7549 -27.0464 L 36.759 -27.0452 L 38.7737 -26.5074 L 38.7779 -26.5064 L 40.8229 -26.0492 L 40.8271 -26.0483 L 42.8974 -25.6727 L 42.9017 -25.6721 L 44.9923 -25.3789 L 44.9966 -25.3785 L 47.1025 -25.1686 L 47.1068 -25.1683 L 49.2229 -25.0422 L 49.2273 -25.0421 L 51.3485 -25 L 51.3528 -25.0001 L 51.3565 -25 L 53.1757 -25.0309 L 55.3541 -25.0012 L 55.3584 -25.0013 L 57.5358 -25.0603 L 57.54 -25.0605 L 59.7111 -25.2081 L 59.7153 -25.2085 L 61.8743 -25.4442 L 61.8785 -25.4448 L 64.0201 -25.7681 L 64.0243 -25.7689 L 66.143 -26.179 L 66.1471 -26.1799 L 68.2376 -26.6757 L 68.2416 -26.6768 L 70.2985 -27.2571 L 70.3025 -27.2583 L 72.3206 -27.9216 L 72.3245 -27.923 L 74.2987 -28.6676 L 74.3025 -28.6692 L 76.2277 -29.4932 L 76.2314 -29.4949 L 78.1028 -30.3963 L 78.1064 -30.3981 L 79.9193 -31.3745 L 79.9227 -31.3765 L 81.6724 -32.4254 L 81.6758 -32.4275 L 83.3578 -33.5464 L 83.361 -33.5486 L 84.9711 -34.7345 L 84.9742 -34.7369 L 86.5084 -35.9868 L 86.5113 -35.9893 L 87.9656 -37.3001 L 87.9683 -37.3027 L 89.339 -38.6711 L 89.3416 -38.6738 L 90.6252 -40.0962 L 90.6277 -40.099 L 91.821 -41.5719 L 91.8233 -41.5747 L 92.9232 -43.0943 L 92.9253 -43.0973 L 93.9291 -44.6597 L 93.931 -44.6628 L 94.8361 -46.2641 L 94.8379 -46.2672 L 95.642 -47.9033 L 95.6435 -47.9065 L 96.3446 -49.5733 L 96.3459 -49.5765 L 96.9422 -51.2697 L 96.9433 -51.273 L 97.4332 -52.9883 L 97.4342 -52.9917 L 97.8165 -54.7247 L 97.8172 -54.7281 L 98.091 -56.4745 L 98.0916 -56.4779 L 98.2561 -58.2333 L 98.2564 -58.2367 L 98.3113 -59.9966 L 98.3114 -60 L 98.3113 -60.0034 L 98.2564 -61.7633 L 98.2561 -61.7667 L 98.0916 -63.522 L 98.091 -63.5255 L 97.8172 -65.2719 L 97.8165 -65.2753 L 97.4342 -67.0083 L 97.4332 -67.0117 L 96.9433 -68.727 L 96.9422 -68.7303 L 96.3459 -70.4235 L 96.3446 -70.4267 L 95.6435 -72.0935 L 95.642 -72.0967 L 94.8379 -73.7328 L 94.8361 -73.7359 L 93.931 -75.3372 L 93.9291 -75.3403 L 92.9253 -76.9027 L 92.9232 -76.9057 L 91.8233 -78.4252 L 91.821 -78.4281 L 90.6277 -79.901 L 90.6252 -79.9038 L 89.3416 -81.3262 L 89.339 -81.3289 L 87.9683 -82.6973 L 87.9656 -82.6999 L 86.5113 -84.0107 L 86.5084 -84.0132 L 84.9742 -85.2631 L 84.9711 -85.2655 L 83.361 -86.4514 L 83.3578 -86.4536 L 81.6758 -87.5725 L 81.6724 -87.5746 L 79.9227 -88.6235 L 79.9193 -88.6255 L 78.1064 -89.6019 L 78.1028 -89.6037 L 76.2314 -90.5051 L 76.2277 -90.5068 L 74.3025 -91.3308 L 74.2987 -91.3324 L 72.3245 -92.077 L 72.3206 -92.0784 L 70.3025 -92.7417 L 70.2985 -92.7429 L 68.2416 -93.3232 L 68.2376 -93.3243 L 66.1471 -93.8201 L 66.143 -93.821 L 64.0243 -94.2311 L 64.0201 -94.2319 L 61.8785 -94.5552 L 61.8743 -94.5558 L 59.7153 -94.7915 L 59.7111 -94.7919 L 57.54 -94.9395 L 57.5358 -94.9397 L 55.3584 -94.9987 L 55.3541 -94.9988 L 53.1757 -94.9691 L 51.3565 -95 z  M -95.1629 -89.6037 L -97.0343 -90.5051 L -97.038 -90.5068 L -98.9633 -91.3308 L -98.9671 -91.3324 L -100.941 -92.077 L -100.945 -92.0784 L -102.963 -92.7417 L -102.967 -92.7429 L -105.024 -93.3232 L -105.028 -93.3243 L -107.119 -93.8201 L -107.123 -93.821 L -109.241 -94.2311 L -109.246 -94.2319 L -111.387 -94.5552 L -111.391 -94.5558 L -113.55 -94.7915 L -113.555 -94.7919 L -115.726 -94.9395 L -115.73 -94.9397 L -117.907 -94.9987 L -117.912 -94.9988 L -120.09 -94.9691 L -121.909 -95 L -121.913 -94.9999 L -121.917 -95 L -124.038 -94.9579 L -124.043 -94.9578 L -126.159 -94.8317 L -126.163 -94.8314 L -128.269 -94.6215 L -128.273 -94.621 L -130.364 -94.3279 L -130.368 -94.3273 L -132.439 -93.9517 L -132.443 -93.9508 L -134.488 -93.4936 L -134.492 -93.4926 L -136.507 -92.9548 L -136.511 -92.9536 L -138.49 -92.3366 L -138.495 -92.3353 L -140.434 -91.6405 L -140.438 -91.639 L -142.334 -90.8682 L -142.337 -90.8665 L -144.184 -90.0215 L -144.187 -90.0197 L -145.98 -89.1024 L -145.984 -89.1005 L -147.718 -88.1133 L -147.722 -88.1112 L -149.395 -87.0564 L -149.398 -87.0542 L -151.005 -85.9343 L -151.008 -85.9319 L -152.545 -84.7498 L -152.548 -84.7473 L -154.011 -83.5056 L -154.014 -83.503 L -155.4 -82.2048 L -155.402 -82.202 L -156.708 -80.8504 L -156.71 -80.8476 L -157.932 -79.4459 L -157.934 -79.4429 L -159.07 -77.9945 L -159.072 -77.9914 L -160.118 -76.4997 L -160.12 -76.4966 L -161.074 -74.9652 L -161.075 -74.962 L -161.935 -73.3946 L -161.937 -73.3913 L -162.701 -71.7917 L -162.702 -71.7884 L -163.368 -70.1605 L -163.369 -70.1571 L -163.935 -68.5047 L -163.936 -68.5013 L -164.401 -66.8285 L -164.401 -66.825 L -164.764 -65.1358 L -164.765 -65.1323 L -165.024 -63.4308 L -165.025 -63.4273 L -165.181 -61.7175 L -165.181 -61.7139 L -165.233 -60 L -165.181 -58.2861 L -165.181 -58.2825 L -165.025 -56.5727 L -165.024 -56.5692 L -164.765 -54.8677 L -164.764 -54.8642 L -164.401 -53.1749 L -164.401 -53.1715 L -163.936 -51.4987 L -163.935 -51.4952 L -163.369 -49.8429 L -163.368 -49.8395 L -162.702 -48.2116 L -162.701 -48.2082 L -161.937 -46.6087 L -161.935 -46.6054 L -161.075 -45.038 L -161.074 -45.0348 L -160.12 -43.5034 L -160.118 -43.5003 L -159.072 -42.0086 L -159.07 -42.0055 L -157.934 -40.5571 L -157.932 -40.5541 L -156.71 -39.1524 L -156.708 -39.1496 L -155.402 -37.798 L -155.4 -37.7952 L -154.014 -36.497 L -154.011 -36.4944 L -152.548 -35.2527 L -152.545 -35.2502 L -151.008 -34.068 L -151.005 -34.0657 L -149.398 -32.9458 L -149.395 -32.9436 L -147.722 -31.8888 L -147.718 -31.8867 L -145.984 -30.8995 L -145.98 -30.8976 L -144.187 -29.9803 L -144.184 -29.9785 L -142.337 -29.1335 L -142.334 -29.1318 L -140.438 -28.361 L -140.434 -28.3595 L -138.495 -27.6647 L -138.49 -27.6634 L -136.511 -27.0464 L -136.507 -27.0452 L -134.492 -26.5074 L -134.488 -26.5064 L -132.443 -26.0492 L -132.439 -26.0483 L -130.368 -25.6727 L -130.364 -25.6721 L -128.273 -25.3789 L -128.269 -25.3785 L -126.163 -25.1686 L -126.159 -25.1683 L -124.043 -25.0422 L -124.038 -25.0421 L -121.917 -25 L -121.913 -25.0001 L -121.909 -25 L -120.09 -25.0309 L -117.912 -25.0012 L -117.907 -25.0013 L -115.73 -25.0603 L -115.726 -25.0605 L -113.555 -25.2081 L -113.55 -25.2085 L -111.391 -25.4442 L -111.387 -25.4448 L -109.246 -25.7681 L -109.241 -25.7689 L -107.123 -26.179 L -107.119 -26.1799 L -105.028 -26.6757 L -105.024 -26.6768 L -102.967 -27.2571 L -102.963 -27.2583 L -100.945 -27.9216 L -100.941 -27.923 L -98.9671 -28.6676 L -98.9633 -28.6692 L -97.038 -29.4932 L -97.0343 -29.4949 L -95.1629 -30.3963 L -95.1593 -30.3981 L -93.3464 -31.3745 L -93.343 -31.3765 L -91.5933 -32.4254 L -91.59 -32.4275 L -89.9079 -33.5464 L -89.9047 -33.5486 L -88.2946 -34.7345 L -88.2915 -34.7369 L -86.7573 -35.9868 L -86.7544 -35.9893 L -85.3001 -37.3001 L -85.2974 -37.3027 L -83.9267 -38.6711 L -83.9241 -38.6738 L -82.6405 -40.0962 L -82.638 -40.099 L -81.4447 -41.5719 L -81.4424 -41.5747 L -80.3425 -43.0943 L -80.3404 -43.0973 L -79.3366 -44.6597 L -79.3347 -44.6628 L -78.4296 -46.2641 L -78.4279 -46.2672 L -77.6237 -47.9033 L -77.6222 -47.9065 L -76.9211 -49.5733 L -76.9198 -49.5765 L -76.3235 -51.2697 L -76.3224 -51.273 L -75.8325 -52.9883 L -75.8316 -52.9917 L -75.4492 -54.7247 L -75.4485 -54.7281 L -75.1747 -56.4745 L -75.1742 -56.4779 L -75.0096 -58.2333 L -75.0093 -58.2367 L -74.9544 -59.9966 L -74.9543 -60 L -74.9544 -60.0034 L -75.0093 -61.7633 L -75.0096 -61.7667 L -75.1742 -63.522 L -75.1747 -63.5255 L -75.4485 -65.2719 L -75.4492 -65.2753 L -75.8316 -67.0083 L -75.8325 -67.0117 L -76.3224 -68.727 L -76.3235 -68.7303 L -76.9198 -70.4235 L -76.9211 -70.4267 L -77.6222 -72.0935 L -77.6237 -72.0967 L -78.4279 -73.7328 L -78.4296 -73.7359 L -79.3347 -75.3372 L -79.3366 -75.3403 L -80.3404 -76.9027 L -80.3425 -76.9057 L -81.4424 -78.4252 L -81.4447 -78.4281 L -82.638 -79.901 L -82.6405 -79.9038 L -83.9241 -81.3262 L -83.9267 -81.3289 L -85.2974 -82.6973 L -85.3001 -82.6999 L -86.7544 -84.0107 L -86.7573 -84.0132 L -88.2915 -85.2631 L -88.2946 -85.2655 L -89.9047 -86.4514 L -89.9079 -86.4536 L -91.59 -87.5725 L -91.5933 -87.5746 L -93.343 -88.6235 L -93.3464 -88.6255 L -95.1593 -89.6019 z  M -177.974 -2.38419e-006 L -177.974 -0.0400058 L -177.974 -20 L -201.926 -20 L -201.974 -20 L -201.974 -20.16 L -201.974 -100 L -178.022 -100 L -177.974 -100 L -177.974 -100.04 L -177.974 -120 L -177.692 -120 L -36.8893 -120 L -36.8893 -60.12 L -36.8893 -60 L -36.8756 -60 L -30.0322 -60 L -30.0322 -119.88 L -30.0322 -120 L -29.7481 -120 L 112.026 -120 L 112.026 -119.96 L 112.026 -100 L 135.978 -100 L 136.026 -100 L 136.026 -99.8401 L 136.026 -20 L 112.074 -20 L 112.026 -20 L 112.026 -19.96 L 112.026 -2.38419e-006 L 111.446 -2.38419e-006 z  " fill= "none" stroke="rgb(0,0,255)" stroke-width="0.05mm" />
</svg>
