<?xml version="1.0" standalone="no"?>
<!DOCTYPE svg PUBLIC "-//W3C//DTD SVG 1.1//EN"
"http://www.w3.org/Graphics/SVG/1.1/DTD/svg11.dtd">
<svg width="308mm" height="149.325mm" viewBox="-254 -126.787 308 149.325" xmlns="http://www.w3.org/2000/svg" version = "1.1">
<title>ProjectorStand_LaserCutType.123dx</title>
<desc> made with 123D Design </desc>
<path d="M -204.558 -54.4561 L -204.559 -54.4616 L -204.889 -57.2192 L -204.89 -57.2248 L -205 -60 L -205 -60.0056 L -204.889 -62.7808 L -204.889 -62.7863 L -204.558 -65.5439 L -204.557 -65.5494 L -204.008 -68.2721 L -204.007 -68.2774 L -203.244 -70.9479 L -203.242 -70.9531 L -202.269 -73.5545 L -202.266 -73.5595 L -201.09 -76.0754 L -201.087 -76.0802 L -199.714 -78.4947 L -199.711 -78.4993 L -198.151 -80.797 L -198.148 -80.8014 L -196.41 -82.9679 L -196.406 -82.972 L -194.501 -84.9936 L -194.497 -84.9973 L -192.438 -86.8612 L -192.434 -86.8646 L -190.233 -88.559 L -190.229 -88.562 L -187.9 -90.0763 L -187.895 -90.0789 L -185.454 -91.4034 L -185.449 -91.4056 L -182.91 -92.5319 L -182.905 -92.5338 L -180.285 -93.4548 L -180.279 -93.4562 L -177.594 -94.1662 L -177.589 -94.1672 L -174.856 -94.6615 L -174.85 -94.6621 L -172.087 -94.9377 L -172.081 -94.9379 L -169.304 -94.9931 L -169.299 -94.9927 L -166.526 -94.8272 L -166.521 -94.8264 L -163.77 -94.4411 L -163.765 -94.4399 L -161.053 -93.8372 L -161.048 -93.8356 L -158.393 -93.0195 L -158.388 -93.0174 L -155.807 -91.9929 L -155.802 -91.9905 L -153.31 -90.7641 L -153.305 -90.7613 L -150.918 -89.3408 L -150.914 -89.3376 L -148.647 -87.732 L -148.643 -87.7285 L -146.512 -85.9479 L -146.508 -85.944 L -144.524 -83.9997 L -144.521 -83.9955 L -142.698 -81.8998 L -142.695 -81.8953 L -141.044 -79.6614 L -141.041 -79.6567 L -139.574 -77.2987 L -139.571 -77.2938 L -138.296 -74.8267 L -138.293 -74.8215 L -137.218 -72.2609 L -137.216 -72.2556 L -136.347 -69.6176 L -136.346 -69.6122 L -135.69 -66.9135 L -135.689 -66.908 L -135.249 -64.1656 L -135.248 -64.1601 L -135.028 -61.3915 L -135.028 -61.3859 L -135.028 -58.6085 L -135.028 -58.603 L -135.249 -55.8344 L -135.25 -55.8289 L -135.69 -53.0865 L -135.691 -53.0811 L -136.347 -50.3824 L -136.349 -50.3771 L -137.218 -47.7391 L -137.22 -47.734 L -138.296 -45.1733 L -138.298 -45.1684 L -139.574 -42.7013 L -139.577 -42.6965 L -141.044 -40.3386 L -141.048 -40.3341 L -142.698 -38.1002 L -142.702 -38.096 L -144.524 -36.0003 L -144.528 -35.9964 L -146.512 -34.0521 L -146.516 -34.0485 L -148.647 -32.268 L -148.652 -32.2648 L -150.918 -30.6592 L -150.923 -30.6563 L -153.31 -29.2359 L -153.315 -29.2334 L -155.807 -28.0071 L -155.812 -28.005 L -158.393 -26.9805 L -158.399 -26.9789 L -161.053 -26.1628 L -161.059 -26.1615 L -163.77 -25.5589 L -163.776 -25.5581 L -166.526 -25.1728 L -166.532 -25.1725 L -169.304 -25.0069 L -169.31 -25.007 L -172.087 -25.0622 L -172.092 -25.0628 L -174.856 -25.3385 L -174.861 -25.3395 L -177.594 -25.8338 L -177.6 -25.8352 L -180.285 -26.5452 L -180.29 -26.547 L -182.91 -27.4681 L -182.915 -27.4703 L -185.454 -28.5966 L -185.459 -28.5993 L -187.9 -29.9237 L -187.905 -29.9268 L -190.233 -31.441 L -190.238 -31.4444 L -192.438 -33.1388 L -192.442 -33.1425 L -194.501 -35.0064 L -194.505 -35.0105 L -196.41 -37.0321 L -196.413 -37.0364 L -198.151 -39.203 L -198.154 -39.2076 L -199.714 -41.5053 L -199.717 -41.5101 L -201.09 -43.9246 L -201.092 -43.9296 L -202.269 -46.4455 L -202.271 -46.4507 L -203.244 -49.0521 L -203.245 -49.0575 L -204.008 -51.7279 L -204.01 -51.7334 z  M -163.538 11.8029 L -163.001 11.8499 L -163 11.85 L -162.463 11.803 L -162.462 11.8029 L -161.941 11.6633 L -161.94 11.663 L -161.451 11.4351 L -161.45 11.4347 L -161.008 11.1254 L -161.007 11.1247 L -160.626 10.7434 L -160.625 10.7426 L -160.316 10.3009 L -160.315 10.3 L -160.087 9.81124 L -160.087 9.81026 L -159.947 9.28935 L -159.947 9.28831 L -159.9 8.75108 L -159.9 8.75 L -159.947 8.21277 L -159.947 8.21169 L -160.087 7.69078 L -160.087 7.68974 L -160.315 7.20098 L -160.315 7.2 L -160.625 6.75824 L -160.625 6.75736 L -161.007 6.37603 L -161.007 6.37526 L -161.449 6.06594 L -161.45 6.06532 L -161.939 5.83741 L -161.94 5.83695 L -162.461 5.69738 L -162.462 5.6971 L -162.999 5.65009 L -163 5.65 L -163.537 5.697 L -163.538 5.6971 L -164.059 5.83667 L -164.06 5.83695 L -164.549 6.06486 L -164.55 6.06532 L -164.992 6.37464 L -164.993 6.37526 L -165.374 6.75659 L -165.375 6.75736 L -165.684 7.19912 L -165.685 7.2 L -165.913 7.68876 L -165.913 7.68974 L -166.053 8.21065 L -166.053 8.21169 L -166.1 8.74892 L -166.1 8.75 L -166.053 9.28723 L -166.053 9.28831 L -165.913 9.80922 L -165.913 9.81026 L -165.685 10.299 L -165.685 10.3 L -165.375 10.7418 L -165.375 10.7426 L -164.993 11.124 L -164.993 11.1247 L -164.551 11.4341 L -164.55 11.4347 L -164.061 11.6626 L -164.06 11.663 L -163.539 11.8026 z  M -38.5622 11.8039 L -37.9 12.1127 L -37.8988 12.1135 L -37.3003 12.5326 L -37.2993 12.5336 L -36.7826 13.0503 L -36.7818 13.0515 L -36.3627 13.65 L -36.3621 13.6513 L -36.0533 14.3135 L -36.0529 14.3149 L -35.8638 15.0207 L -35.8637 15.0221 L -35.8 15.75 L -18.1739 15.75 L -18.1386 15.75 L -17.3144 15.6815 L -17.3127 15.6813 L -16.5112 15.4776 L -16.5096 15.4772 L -15.7527 15.1439 L -15.7512 15.1432 L -15.7498 15.1423 L -15.0583 14.6885 L -15.0571 14.6874 L -14.4501 14.1257 L -13.9442 13.4714 L -13.9432 13.4701 L -13.5524 12.7412 L -13.5516 12.7398 L -13.2865 11.9564 L -13.2859 11.9548 L -12.7746 10.2939 L -12.7735 10.2905 L -12.0819 8.69619 L -12.0805 8.69299 L -11.2172 7.18474 L -11.2154 7.18172 L -10.1908 5.77799 L -10.1888 5.77518 L -9.01545 4.49315 L -9.01309 4.49058 L -7.70543 3.34591 L -7.7028 3.34362 L -6.27676 2.3503 L -6.27391 2.34831 L -4.74692 1.5185 L -4.74386 1.51683 L -3.13461 0.860661 L -3.13138 0.859346 L -1.45953 0.384836 L -1.45618 0.383885 L 0.257845 0.096839 L 0.26128 0.0962638 L 1.99651 0.000190213 L 1.99999 -2.32351e-006 L 39.924 -2.32351e-006 L 40 -2.32351e-006 L 40 -119.76 L 40 -120 L -239.44 -120 L -240 -120 L -240 -0.240007 L -240 -2.32351e-006 L -202.076 -2.32351e-006 L -202 -2.32351e-006 L -200.265 0.0960713 L -200.261 0.0962638 L -198.547 0.38331 L -198.544 0.383885 L -196.872 0.858395 L -196.869 0.859346 L -195.259 1.51552 L -195.256 1.51683 L -193.729 2.34665 L -193.726 2.34831 L -192.3 3.34163 L -192.297 3.34362 L -190.99 4.48829 L -190.987 4.49058 L -189.814 5.77261 L -189.811 5.77518 L -188.787 7.1789 L -188.785 7.18172 L -187.921 8.68997 L -187.919 8.69299 L -187.228 10.2873 L -187.226 10.2905 L -186.715 11.9515 L -186.714 11.9548 L -186.449 12.7382 L -186.448 12.7398 L -186.058 13.4686 L -186.057 13.4701 L -185.551 14.1244 L -185.55 14.1257 L -185.549 14.1268 L -184.942 14.6885 L -184.94 14.6894 L -184.249 15.1432 L -183.492 15.4765 L -183.49 15.4772 L -182.689 15.6809 L -182.687 15.6813 L -181.863 15.7499 L -181.861 15.75 L -126.45 15.75 L -126.339 15.75 L -125.514 15.6815 L -125.513 15.6813 L -124.711 15.4776 L -124.71 15.4772 L -123.953 15.1439 L -123.951 15.1432 L -123.95 15.1423 L -123.258 14.6885 L -123.257 14.6874 L -122.65 14.1257 L -122.144 13.4714 L -122.143 13.4701 L -121.752 12.7412 L -121.752 12.7398 L -121.486 11.9564 L -121.486 11.9548 L -120.953 10.2368 L -120.952 10.2334 L -120.227 8.58751 L -120.225 8.58422 L -119.317 7.03197 L -119.315 7.02886 L -118.235 5.59057 L -118.233 5.58769 L -116.996 4.2822 L -116.993 4.27958 L -115.615 3.12398 L -115.612 3.12167 L -114.111 2.13109 L -114.108 2.1291 L -112.503 1.31651 L -112.5 1.31489 L -112.5 -49.8974 L -112.5 -50 L -112.45 -50 L -87.5 -50 L -87.5 1.21225 L -87.5 1.31489 L -85.8954 2.12748 L -85.8922 2.1291 L -84.3909 3.11968 L -84.3879 3.12167 L -83.0096 4.27727 L -83.0068 4.27958 L -81.7696 5.58507 L -81.7671 5.58769 L -80.6871 7.02597 L -80.6849 7.02886 L -79.7763 8.58111 L -79.7745 8.58422 L -79.0492 10.2301 L -79.0477 10.2334 L -78.5151 11.9514 L -78.5141 11.9548 L -78.249 12.7382 L -78.2484 12.7398 L -77.8576 13.4686 L -77.8568 13.4701 L -77.3509 14.1244 L -77.3499 14.1257 L -77.3487 14.1268 L -76.7417 14.6885 L -76.7403 14.6894 L -76.0488 15.1432 L -75.2919 15.4765 L -75.2904 15.4772 L -74.4889 15.6809 L -74.4872 15.6813 L -73.6631 15.7499 L -73.6614 15.75 L -44.2589 15.75 L -44.2 15.75 L -44.1999 15.7485 L -44.1362 15.0207 L -44.1358 15.0193 L -43.9467 14.3135 L -43.9461 14.3122 L -43.6373 13.65 L -43.6365 13.6488 L -43.2174 13.0503 L -43.2164 13.0493 L -42.6997 12.5326 L -42.6985 12.5318 L -42.1 12.1127 L -42.0987 12.1121 L -41.4365 11.8033 L -41.4351 11.8029 L -40.7293 11.6138 L -40.7279 11.6137 L -40 11.55 L -39.9985 11.5501 L -39.2707 11.6138 L -39.2693 11.6142 L -38.5635 11.8033 z  M 4.75034 -55.8289 L 4.31041 -53.0865 L 4.30909 -53.0811 L 3.65267 -50.3824 L 3.65093 -50.3771 L 2.78217 -47.7391 L 2.78002 -47.734 L 1.70441 -45.1733 L 1.70186 -45.1684 L 0.426209 -42.7013 L 0.423267 -42.6965 L -1.04436 -40.3386 L -1.04767 -40.3341 L -2.698 -38.1002 L -2.70165 -38.096 L -4.52424 -36.0003 L -4.52822 -35.9964 L -6.51156 -34.0521 L -6.51583 -34.0485 L -8.64737 -32.268 L -8.65191 -32.2648 L -10.9182 -30.6592 L -10.923 -30.6563 L -13.3096 -29.2359 L -13.3146 -29.2334 L -15.8066 -28.0071 L -15.8118 -28.005 L -18.3933 -26.9805 L -18.3986 -26.9789 L -21.0534 -26.1628 L -21.0589 -26.1615 L -23.7701 -25.5589 L -23.7756 -25.5581 L -26.5261 -25.1728 L -26.5317 -25.1725 L -29.3041 -25.0069 L -29.3097 -25.007 L -32.0865 -25.0622 L -32.0921 -25.0628 L -34.8557 -25.3385 L -34.8612 -25.3395 L -37.5943 -25.8338 L -37.5996 -25.8352 L -40.2848 -26.5452 L -40.29 -26.547 L -42.9102 -27.4681 L -42.9153 -27.4703 L -45.4541 -28.5966 L -45.459 -28.5993 L -47.9002 -29.9237 L -47.9049 -29.9268 L -50.2332 -31.441 L -50.2376 -31.4444 L -52.4383 -33.1388 L -52.4424 -33.1425 L -54.5015 -35.0064 L -54.5053 -35.0105 L -56.4098 -37.0321 L -56.4132 -37.0364 L -58.1511 -39.203 L -58.1542 -39.2076 L -59.7144 -41.5053 L -59.7172 -41.5101 L -61.0899 -43.9246 L -61.0922 -43.9296 L -62.2688 -46.4455 L -62.2708 -46.4507 L -63.2437 -49.0521 L -63.2452 -49.0575 L -64.0084 -51.7279 L -64.0095 -51.7334 L -64.5581 -54.4561 L -64.5588 -54.4616 L -64.8894 -57.2192 L -64.8896 -57.2248 L -65 -60 L -64.9998 -60.0056 L -64.8894 -62.7808 L -64.8887 -62.7863 L -64.5581 -65.5439 L -64.557 -65.5494 L -64.0084 -68.2721 L -64.0069 -68.2774 L -63.2437 -70.9479 L -63.2418 -70.9531 L -62.2688 -73.5545 L -62.2664 -73.5595 L -61.0899 -76.0754 L -61.0871 -76.0802 L -59.7144 -78.4947 L -59.7113 -78.4993 L -58.1511 -80.797 L -58.1476 -80.8014 L -56.4098 -82.9679 L -56.4059 -82.972 L -54.5015 -84.9936 L -54.4973 -84.9973 L -52.4383 -86.8612 L -52.4339 -86.8646 L -50.2332 -88.559 L -50.2286 -88.562 L -47.9002 -90.0763 L -47.8954 -90.0789 L -45.4541 -91.4034 L -45.449 -91.4056 L -42.9102 -92.5319 L -42.905 -92.5338 L -40.2848 -93.4548 L -40.2794 -93.4562 L -37.5943 -94.1662 L -37.5888 -94.1672 L -34.8557 -94.6615 L -34.8502 -94.6621 L -32.0865 -94.9377 L -32.081 -94.9379 L -29.3041 -94.9931 L -29.2986 -94.9927 L -26.5261 -94.8272 L -26.5206 -94.8264 L -23.7701 -94.4411 L -23.7646 -94.4399 L -21.0534 -93.8372 L -21.0481 -93.8356 L -18.3933 -93.0195 L -18.3882 -93.0174 L -15.8066 -91.9929 L -15.8016 -91.9905 L -13.3096 -90.7641 L -13.3049 -90.7613 L -10.9182 -89.3408 L -10.9136 -89.3376 L -8.64737 -87.732 L -8.6431 -87.7285 L -6.51156 -85.9479 L -6.50758 -85.944 L -4.52424 -83.9997 L -4.52059 -83.9955 L -2.698 -81.8998 L -2.69469 -81.8953 L -1.04436 -79.6614 L -1.04142 -79.6567 L 0.426209 -77.2987 L 0.428765 -77.2938 L 1.70441 -74.8267 L 1.70657 -74.8215 L 2.78217 -72.2609 L 2.78391 -72.2556 L 3.65267 -69.6176 L 3.65399 -69.6122 L 4.31041 -66.9135 L 4.31129 -66.908 L 4.75122 -64.1656 L 4.75166 -64.1601 L 4.97233 -61.3915 L 4.97233 -61.3859 L 4.97233 -58.6085 L 4.97189 -58.603 L 4.75122 -55.8344 z  M -175.25 4.85289 L -175.249 4.85222 L -174.539 4.52138 L -174.538 4.52098 L -173.781 4.31837 L -173.78 4.31823 L -173 4.25 L -172.998 4.25014 L -172.219 4.31837 L -172.217 4.31877 L -171.461 4.52138 L -171.459 4.52205 L -170.75 4.85289 L -170.749 4.85379 L -170.107 5.3028 L -170.106 5.30391 L -169.553 5.85746 L -169.552 5.85874 L -169.103 6.5 L -169.102 6.50142 L -168.771 7.21091 L -168.771 7.21242 L -168.568 7.96858 L -168.568 7.97015 L -168.5 8.75 L -168.5 8.75156 L -168.568 9.53142 L -168.569 9.53293 L -168.771 10.2891 L -168.772 10.2905 L -169.103 11 L -169.104 11.0013 L -169.553 11.6425 L -169.554 11.6437 L -170.107 12.1972 L -170.109 12.1981 L -170.75 12.6471 L -170.751 12.6478 L -171.461 12.9786 L -171.462 12.979 L -172.219 13.1816 L -172.22 13.1818 L -173 13.25 L -173.002 13.2499 L -173.781 13.1816 L -173.783 13.1812 L -174.539 12.9786 L -174.541 12.978 L -175.25 12.6471 L -175.251 12.6462 L -175.893 12.1972 L -175.894 12.1961 L -176.447 11.6425 L -176.448 11.6413 L -176.897 11 L -176.898 10.9986 L -177.229 10.2891 L -177.229 10.2876 L -177.432 9.53142 L -177.432 9.52985 L -177.5 8.75 L -177.5 8.74844 L -177.432 7.96858 L -177.431 7.96707 L -177.229 7.21091 L -177.228 7.20949 L -176.897 6.5 L -176.896 6.49871 L -176.447 5.85746 L -176.446 5.85635 L -175.893 5.3028 L -175.891 5.3019 z  M -67.2182 7.93646 L -67.2182 7.93757 L -67.1373 8.48834 L -67.1371 8.48944 L -66.9618 9.01779 L -66.9614 9.01885 L -66.697 9.50872 L -66.6964 9.5097 L -66.351 9.94621 L -66.3503 9.94708 L -65.9343 10.317 L -65.9334 10.3177 L -65.4595 10.6097 L -65.4585 10.6103 L -64.9411 10.8156 L -64.9401 10.816 L -64.3948 10.9284 L -64.3937 10.9286 L -63.8373 10.9445 L -63.8362 10.9446 L -63.2854 10.8636 L -63.2843 10.8635 L -62.7559 10.6881 L -62.7549 10.6878 L -62.265 10.4233 L -62.264 10.4228 L -61.8275 10.0773 L -61.8266 10.0766 L -61.4568 9.66062 L -61.456 9.65979 L -61.164 9.18585 L -61.1634 9.1849 L -60.9581 8.66746 L -60.9577 8.66642 L -60.8454 8.12119 L -60.8452 8.1201 L -60.8292 7.56364 L -60.8292 7.56253 L -60.9101 7.01176 L -60.9103 7.01066 L -61.0856 6.48231 L -61.086 6.48125 L -61.3504 5.99138 L -61.3509 5.9904 L -61.6964 5.55389 L -61.6971 5.55302 L -62.1131 5.18313 L -62.1139 5.18238 L -62.5879 4.89036 L -62.5888 4.88977 L -63.1063 4.68448 L -63.1073 4.68407 L -63.6525 4.57174 L -63.6536 4.57152 L -64.2101 4.55558 L -64.2112 4.55555 L -64.762 4.63648 L -64.7631 4.63664 L -65.2914 4.81199 L -65.2925 4.81234 L -65.7824 5.07676 L -65.7833 5.07729 L -66.2198 5.42276 L -66.2207 5.42346 L -66.5906 5.83948 L -66.5913 5.84031 L -66.8834 6.31425 L -66.884 6.3152 L -67.0893 6.83264 L -67.0897 6.83368 L -67.202 7.37891 L -67.2022 7.38 z  M -231.07 -109.85 L -215.757 -109.85 L -215.757 -10.3494 L -215.757 -10.15 L -231.07 -10.15 L -231.1 -10.15 L -231.1 -109.651 L -231.1 -109.85 z  M 15.7567 -10.15 L 31.0697 -10.15 L 31.1004 -10.15 L 31.1004 -10.3494 L 31.1004 -109.85 L 31.0697 -109.85 L 15.7567 -109.85 L 15.7567 -109.651 z  " fill= "none" stroke="rgb(0,0,255)" stroke-width="0.05mm" />
</svg>
