<?xml version="1.0" standalone="no"?>
<!DOCTYPE svg PUBLIC "-//W3C//DTD SVG 1.1//EN"
"http://www.w3.org/Graphics/SVG/1.1/DTD/svg11.dtd">
<svg width="264mm" height="132mm" viewBox="-34.15 -126 264 132" xmlns="http://www.w3.org/2000/svg" version = "1.1">
<title>ProjectorStand_LaserCutType_2nd.123dx</title>
<desc> made with 123D Design </desc>
<path d="M 133.702 -113.158 L 133.703 -113.163 L 134.23 -115.406 L 134.231 -115.411 L 134.549 -117.693 L 134.55 -117.698 L 134.656 -120 L 134.782 -120 L 197.75 -120 L 197.75 -119.96 L 197.75 -99.9 L 197.76 -99.9 L 202.95 -99.9 L 202.95 -99.9402 L 202.95 -120 L 202.98 -120 L 217.85 -120 L 217.85 -119.76 L 217.85 -2.38419e-006 L 202.98 -2.38419e-006 L 202.95 -2.38419e-006 L 202.95 -0.0402024 L 202.95 -20.1 L 202.94 -20.1 L 197.75 -20.1 L 197.75 -20.0598 L 197.75 -2.38419e-006 L 197.34 -2.38419e-006 L -7.15 -2.38419e-006 L -7.15 -0.0200024 L -7.15 -10 L -7.18 -10 L -22.15 -10 L -22.15 -109.8 L -22.15 -110 L -7.18 -110 L -7.15 -110 L -7.15 -119.98 L -7.15 -120 L -7.08361 -120 L 26.044 -120 L 26.0442 -119.995 L 26.1506 -117.693 L 26.1513 -117.689 L 26.4697 -115.406 L 26.4707 -115.402 L 26.9984 -113.158 L 26.9998 -113.154 L 27.7322 -110.969 L 27.7341 -110.965 L 28.6649 -108.857 L 28.6672 -108.853 L 29.7886 -106.839 L 29.7912 -106.835 L 31.0936 -104.934 L 31.0965 -104.931 L 32.5688 -103.158 L 32.572 -103.154 L 34.2016 -101.525 L 34.2052 -101.522 L 35.9781 -100.05 L 35.9819 -100.047 L 37.8832 -98.7446 L 37.8872 -98.7423 L 39.9005 -97.6209 L 39.9048 -97.6191 L 42.013 -96.6882 L 42.0173 -96.6867 L 44.2024 -95.9544 L 44.2069 -95.9533 L 46.4503 -95.4257 L 46.4548 -95.425 L 48.7373 -95.1066 L 48.7419 -95.1064 L 51.044 -95 L 51.1612 -95 L 109.656 -95 L 109.661 -95.0002 L 111.963 -95.1066 L 111.967 -95.1073 L 114.25 -95.4257 L 114.254 -95.4267 L 116.498 -95.9544 L 116.502 -95.9558 L 118.687 -96.6882 L 118.691 -96.6901 L 120.799 -97.6209 L 120.803 -97.6232 L 122.817 -98.7446 L 122.821 -98.7472 L 124.722 -100.05 L 124.725 -100.053 L 126.498 -101.525 L 126.502 -101.528 L 128.131 -103.158 L 128.134 -103.161 L 129.606 -104.934 L 129.609 -104.938 L 130.911 -106.839 L 130.914 -106.843 L 132.035 -108.857 L 132.037 -108.861 L 132.968 -110.969 L 132.969 -110.973 z  M -7.14361 -19.9 L -3.95598 -19.9 L -3.95598 -20.0604 L -3.95598 -100.1 L -7.14361 -100.1 L -7.16368 -100.1 L -13.9899 -100.1 L -13.9899 -99.9392 L -13.9899 -19.9 L -7.16368 -19.9 z  M 164.676 -100.1 L 164.656 -100.1 L 164.656 -99.9396 L 164.656 -19.9 L 164.676 -19.9 L 174.69 -19.9 L 174.69 -20.0604 L 174.69 -100.1 z  " fill= "none" stroke="rgb(0,0,255)" stroke-width="0.05mm" />
</svg>
